<?xml version="1.0" encoding="utf-8"?>
<svg xmlns="http://www.w3.org/2000/svg" viewBox="0 0 500 500">
  <path d="M 342.602 95.148 C 342.602 44.339 301.415 3.153 250.608 3.153 C 199.801 3.153 158.613 44.339 158.613 95.148 C 158.613 145.955 199.801 187.14 250.608 187.14 C 301.415 187.14 342.602 145.955 342.602 95.148 Z M 229.133 234.193 C 172.278 199.389 80.189 189.826 33.847 187.188 C 18.274 186.307 5.289 198.171 5.289 213.15 L 5.289 426.653 C 5.289 440.385 16.395 451.836 30.674 452.574 C 72.513 454.768 157.157 462.809 215.66 492.275 C 224.639 496.798 235.285 490.637 235.285 480.902 L 235.285 245.174 C 235.275 240.699 233.063 236.599 229.133 234.193 Z M 467.37 187.188 C 421.037 189.815 328.937 199.389 272.092 234.193 C 268.165 236.599 265.95 240.862 265.95 245.338 L 265.95 480.872 C 265.95 490.637 276.626 496.809 285.632 492.275 C 344.126 462.836 428.723 454.797 470.551 452.603 C 484.83 451.856 495.935 440.405 495.935 426.671 L 495.935 213.15 C 495.926 198.171 482.942 186.307 467.37 187.188 Z" style="stroke-width: 1; fill: rgb(0, 105, 168);"/>
</svg>